<svg version="1.1" viewBox="0 0 64 64" xmlns="http://www.w3.org/2000/svg">
    <g>
        <g fill="#000">
            <path d="m32.165 31.472 0.056138-31.472 4.359 27.159z" fill="#900000"/>
            <path d="m37.226 27.009 10.013-10.008-6.2033 10.671z"/>
            <path d="m31.461 31.845-31.459-0.001781 27.14-4.4077z"/>
            <path d="m26.991 26.79-10.021-9.9996 10.677 6.1874z"/>
            <path d="m32.541 32.196 31.459 0.069893-27.15 4.3489z"/>
            <path d="m37 37.261 9.9995 10.021-10.664-6.2105z"/>
            <path d="m31.834 32.528-0.028684 31.472-4.3826-27.155z"/>
            <path d="m26.778 36.995-10.004 10.017 6.194-10.676z"/>
        </g>
        <g fill="#fff">
            <path d="m31.835 31.472-0.05416-31.472-4.3607 27.159z" fill="#ff5151"/>
            <path d="m26.775 27.009-10.012-10.009 6.2026 10.671z"/>
            <path d="m32.54 31.845 31.459 1.97e-4 -27.14-4.4094z"/>
            <path d="m37.009 26.791 10.022-9.9989-10.677 6.1868z"/>
            <path d="m31.459 32.196-31.459 0.067915 27.149 4.3506z"/>
            <path d="m27 37.26-10 10.021 10.664-6.2099z"/>
            <path d="m32.166 32.528 0.026707 31.472 4.3844-27.155z"/>
            <path d="m37.222 36.995 10.003 10.017-6.1933-10.677z"/>
        </g>
    </g>
</svg>
